<?xml version="1.0" encoding="UTF-8"?>
<svg version="1.1" xmlns="http://www.w3.org/2000/svg" width="154" height="33">
<path d="M0 0 C0.66 1.65 1.32 3.3 2 5 C2.33 3.35 2.66 1.7 3 0 C7.95 0 12.9 0 18 0 C18.495 1.98 18.495 1.98 19 4 C19.66 4.66 20.32 5.32 21 6 C21.1171875 8.27734375 21.1171875 8.27734375 20.875 10.9375 C20.81054688 11.81277344 20.74609375 12.68804687 20.6796875 13.58984375 C19.81526033 16.65508261 18.74370522 17.46292427 16 19 C12.88810534 19.24895157 10.80915474 19.40457737 8 18 C8 19.98 8 21.96 8 24 C6.0625 24.5625 6.0625 24.5625 4 25 C2.41727399 23.41727399 2.65264253 21.61965997 2.4375 19.4375 C2.31181641 18.19806641 2.31181641 18.19806641 2.18359375 16.93359375 C2.12300781 16.29550781 2.06242187 15.65742188 2 15 C1.46375 15.66 0.9275 16.32 0.375 17 C-2 19 -2 19 -5 19.3125 C-10.07633588 18.78371501 -10.07633588 18.78371501 -12 18 C-12.33 17.01 -12.66 16.02 -13 15 C-13.66 14.34 -14.32 13.68 -15 13 C-14.8528898 8.51746558 -13.73105822 4.8815702 -10.875 1.4375 C-6.97558006 -0.51220997 -4.32615207 -0.29329845 0 0 Z M-7 4 C-7.99 4.495 -7.99 4.495 -9 5 C-9 5.66 -9 6.32 -9 7 C-7.02 7 -5.04 7 -3 7 C-3.33 6.34 -3.66 5.68 -4 5 C-4.99 4.67 -5.98 4.34 -7 4 Z M10 4 C8.14223235 7.13498292 7.79859524 9.37471432 8 13 C10.12939828 14.35026777 10.12939828 14.35026777 13.125 13.0625 C14.07375 12.711875 15.0225 12.36125 16 12 C16.31775902 8.34883694 16.31775902 8.34883694 14.6875 5.1875 C12.93500458 3.7122533 12.93500458 3.7122533 10 4 Z M-10 11 C-9.01 12.32 -8.02 13.64 -7 15 C-3.30706264 14.3405469 -2.29427421 13.47070566 1 11 C-2.63 11 -6.26 11 -10 11 Z M2 12 C3 14 3 14 3 14 Z " fill="#909090" transform="translate(82,7)"/>
<path d="M0 0 C5.23435005 4.27293882 9.67106815 8.81580806 14 14 C13.49339844 14.68835938 13.49339844 14.68835938 12.9765625 15.390625 C10.18585592 19.18799033 10.18585592 19.18799033 7.9375 23.3125 C6.652753 25.6250446 5.48189046 26.14906613 3 27 C0.25 27.125 0.25 27.125 -2 27 C-2.66 25.68 -3.32 24.36 -4 23 C-1.36 20.36 1.28 17.72 4 15 C2.16652496 12.93976757 2.16652496 12.93976757 0 12.0625 C-2 11 -2 11 -4 8 C-3.505 7.401875 -3.01 6.80375 -2.5 6.1875 C-0.71723582 4.02970006 -0.71723582 4.02970006 -1 1 C-0.67 0.67 -0.34 0.34 0 0 Z " fill="#9E9E9E" transform="translate(15,6)"/>
<path d="M0 0 C0.70511719 0.26941406 1.41023437 0.53882812 2.13671875 0.81640625 C2.13671875 4.81640625 2.13671875 4.81640625 0.60546875 6.73828125 C-0.04421875 7.3415625 -0.69390625 7.94484375 -1.36328125 8.56640625 C-2.01296875 9.18 -2.66265625 9.79359375 -3.33203125 10.42578125 C-4.09 11.11414063 -4.09 11.11414063 -4.86328125 11.81640625 C-4.45335937 12.2753125 -4.0434375 12.73421875 -3.62109375 13.20703125 C-3.08226562 13.820625 -2.5434375 14.43421875 -1.98828125 15.06640625 C-1.18777344 15.97132812 -1.18777344 15.97132812 -0.37109375 16.89453125 C1.11646745 18.79059371 2.13994311 20.6293063 3.13671875 22.81640625 C1.81671875 23.80640625 0.49671875 24.79640625 -0.86328125 25.81640625 C-3.82384494 24.1619736 -6.47004596 22.37900742 -9.05078125 20.19140625 C-11.59926665 17.85033743 -11.59926665 17.85033743 -13.86328125 16.81640625 C-14.37058375 12.70297755 -14.13529747 11.18560514 -11.6328125 7.7890625 C-10.66286669 6.80328084 -9.67652739 5.83340482 -8.67578125 4.87890625 C-8.19302734 4.37294922 -7.71027344 3.86699219 -7.21289062 3.34570312 C-4.72840664 0.90123767 -3.56304399 -0.22846258 0 0 Z " fill="#A9A9A9" transform="translate(13.86328125,0.18359375)"/>
<path d="M0 0 C1.33804688 0.17982422 1.33804688 0.17982422 2.703125 0.36328125 C3.37859375 0.47027344 4.0540625 0.57726562 4.75 0.6875 C5.8671875 4.40625 5.8671875 4.40625 4.8125 6.9375 C4.461875 7.515 4.11125 8.0925 3.75 8.6875 C4.41 9.3475 5.07 10.0075 5.75 10.6875 C5.59892102 13.63354005 5.13801907 15.21864362 3.25 17.5 C-0.51487195 19.28831417 -4.15126405 18.92396554 -8.25 18.6875 C-10.375 14.0625 -10.375 14.0625 -9.25 10.6875 C-8.26 10.6875 -7.27 10.6875 -6.25 10.6875 C-6.745 10.295625 -7.24 9.90375 -7.75 9.5 C-9.25 7.6875 -9.25 7.6875 -9.6875 5.1875 C-9.25 2.6875 -9.25 2.6875 -7.55078125 1.01171875 C-4.6843366 -0.63806858 -3.23696643 -0.4685083 0 0 Z M-4.25 3.6875 C-4.25 4.6775 -4.25 5.6675 -4.25 6.6875 C-1.94 7.0175 0.37 7.3475 2.75 7.6875 C1.43 7.0275 0.11 6.3675 -1.25 5.6875 C-1.25 5.0275 -1.25 4.3675 -1.25 3.6875 C-2.24 3.6875 -3.23 3.6875 -4.25 3.6875 Z M-5.25 10.6875 C-4.92 12.0075 -4.59 13.3275 -4.25 14.6875 C-2.93 14.6875 -1.61 14.6875 -0.25 14.6875 C0.08 13.6975 0.41 12.7075 0.75 11.6875 C-2.22 11.1925 -2.22 11.1925 -5.25 10.6875 Z " fill="#AEAEAE" transform="translate(45.25,7.3125)"/>
<path d="M0 0 C3.0625 2 3.0625 2 5 5 C5.07522019 9.68872504 3.79385912 13.04736906 0.8125 16.625 C-2.97214951 18.4752731 -4.98872585 18.16691612 -9 17 C-11.4375 15.4375 -11.4375 15.4375 -13 13 C-13.61089984 8.18916379 -13.73857492 6.1571007 -11.125 2.0625 C-7.33038049 -1.62051305 -5.08506657 -1.20662597 0 0 Z M-6 3 C-6 3.66 -6 4.32 -6 5 C-6.99 5.495 -6.99 5.495 -8 6 C-8.93391003 7.81656815 -8.93391003 7.81656815 -9 10 C-7.6483633 12.24755753 -7.6483633 12.24755753 -6 14 C-4.04105639 13.88693303 -4.04105639 13.88693303 -2 13 C-0.41387499 10.74303573 -0.41387499 10.74303573 0 8 C-1.6641239 4.84692313 -2.57552315 4.14149228 -6 3 Z " fill="#AFAFAF" transform="translate(116,8)"/>
<path d="M0 0 C10.35833333 -0.36994048 10.35833333 -0.36994048 13.296875 1.32421875 C15.79119691 3.7784942 15.99041581 5.69215566 16.09765625 9.13671875 C16.08605469 10.30847656 16.07445312 11.48023438 16.0625 12.6875 C16.05347656 13.86699219 16.04445312 15.04648437 16.03515625 16.26171875 C16.02355469 17.16535156 16.01195312 18.06898437 16 19 C14.35 18.67 12.7 18.34 11 18 C10.67 13.71 10.34 9.42 10 5 C8.68 5.33 7.36 5.66 6 6 C5.67 9.96 5.34 13.92 5 18 C3.35 18.33 1.7 18.66 0 19 C0 12.73 0 6.46 0 0 Z " fill="#9A9A9A" transform="translate(128,7)"/>
<path d="M0 0 C1.81546807 3.85786966 2.09380477 6.76705996 2 11 C1.15695313 11.04898437 0.31390625 11.09796875 -0.5546875 11.1484375 C-1.65039062 11.22320312 -2.74609375 11.29796875 -3.875 11.375 C-5.51082031 11.47941406 -5.51082031 11.47941406 -7.1796875 11.5859375 C-10.13046474 11.73253491 -10.13046474 11.73253491 -12 14 C-12.99 13.67 -13.98 13.34 -15 13 C-14.35711081 8.50937104 -13.81886144 4.98745057 -10.875 1.4375 C-6.97558006 -0.51220997 -4.32615207 -0.29329845 0 0 Z M-7 4 C-7.99 4.495 -7.99 4.495 -9 5 C-9 5.66 -9 6.32 -9 7 C-7.02 7 -5.04 7 -3 7 C-3.33 6.34 -3.66 5.68 -4 5 C-4.99 4.67 -5.98 4.34 -7 4 Z " fill="#B4B4B4" transform="translate(82,7)"/>
<path d="M0 0 C1.32 0 2.64 0 4 0 C4 1.65 4 3.3 4 5 C4.99 5 5.98 5 7 5 C7 6.32 7 7.64 7 9 C6.01 9 5.02 9 4 9 C4 11.97 4 14.94 4 18 C4.99 18 5.98 18 7 18 C6.67 19.65 6.34 21.3 6 23 C3.69 22.67 1.38 22.34 -1 22 C-0.67 17.71 -0.34 13.42 0 9 C-0.99 9 -1.98 9 -3 9 C-3.33 7.35 -3.66 5.7 -4 4 C-2.68 4.33 -1.36 4.66 0 5 C0 3.35 0 1.7 0 0 Z " fill="#ADADAD" transform="translate(60,3)"/>
<path d="M0 0 C1.32 0 2.64 0 4 0 C4 1.65 4 3.3 4 5 C4.99 5 5.98 5 7 5 C7 6.32 7 7.64 7 9 C6.01 9 5.02 9 4 9 C4 11.97 4 14.94 4 18 C4.99 18 5.98 18 7 18 C6.67 19.65 6.34 21.3 6 23 C4.02 22.34 2.04 21.68 0 21 C0 17.04 0 13.08 0 9 C-0.99 9 -1.98 9 -3 9 C-3.33 7.35 -3.66 5.7 -4 4 C-2.68 4.33 -1.36 4.66 0 5 C0 3.35 0 1.7 0 0 Z " fill="#B1B1B1" transform="translate(147,3)"/>
<path d="M0 0 C0.33 0 0.66 0 1 0 C1 7.92 1 15.84 1 24 C0.67 24 0.34 24 0 24 C-0.33 21.03 -0.66 18.06 -1 15 C-1.53625 15.66 -2.0725 16.32 -2.625 17 C-5 19 -5 19 -8 19.3125 C-10.4495051 19.05734322 -12.6523259 18.72236126 -15 18 C-15.625 16.125 -15.625 16.125 -16 14 C-15.34 13.34 -14.68 12.68 -14 12 C-11 12.375 -11 12.375 -8 13 C-5.11604263 13 -2.70522185 11.94094673 0 11 C0 7.37 0 3.74 0 0 Z M-1 12 C0 14 0 14 0 14 Z " fill="#8E8E8E" transform="translate(85,7)"/>
<path d="M0 0 C0.99 0.33 1.98 0.66 3 1 C2.34 1 1.68 1 1 1 C1 2.65 1 4.3 1 6 C1.66 6 2.32 6 3 6 C5 11.625 5 11.625 5 15 C4.34 15 3.68 15 3 15 C3 17.97 3 20.94 3 24 C2.01 24 1.02 24 0 24 C0 16.08 0 8.16 0 0 Z " fill="#C3C3C3" transform="translate(86,8)"/>
<path d="M0 0 C1.32 0 2.64 0 4 0 C4 5.61 4 11.22 4 17 C2.68 17 1.36 17 0 17 C0 11.39 0 5.78 0 0 Z " fill="#B6B6B6" transform="translate(122,8)"/>
<path d="M0 0 C1.32 0 2.64 0 4 0 C4 5.61 4 11.22 4 17 C2.68 17 1.36 17 0 17 C0 11.39 0 5.78 0 0 Z " fill="#B5B5B5" transform="translate(52,8)"/>
<path d="M0 0 C0.99 0.33 1.98 0.66 3 1 C3.23822167 3.85866009 3.42775712 6.19819084 3 9 C0.4555019 11.90799783 -0.95398137 12.90702057 -4.8125 13.25 C-5.534375 13.1675 -6.25625 13.085 -7 13 C-6 10 -6 10 -3.5 7.625 C-0.90750895 4.9028844 -0.31377499 3.66070817 0 0 Z " fill="#A7A7A7" transform="translate(116,13)"/>
<path d="M0 0 C4.17103241 0.24535485 6.55592948 0.68545005 10 3.125 C12 6 12 6 11.8125 9.8125 C11.544375 10.864375 11.27625 11.91625 11 13 C10.67 13 10.34 13 10 13 C10 11.02 10 9.04 10 7 C9.34 7 8.68 7 8 7 C7.34 7.66 6.68 8.32 6 9 C3.59927045 6.11912454 1.52708963 3.43595166 0 0 Z " fill="#989898" transform="translate(109,7)"/>
<path d="M0 0 C2.64 0 5.28 0 8 0 C8.75 2.25 8.75 2.25 9 5 C7.5 7.375 7.5 7.375 5 9 C1.25 8.75 1.25 8.75 -2 8 C-1.67 7.34 -1.34 6.68 -1 6 C1.97 6.495 1.97 6.495 5 7 C4.01 6.34 3.02 5.68 2 5 C2.33 4.34 2.66 3.68 3 3 C2.01 2.67 1.02 2.34 0 2 C0 1.34 0 0.68 0 0 Z " fill="#909090" transform="translate(74,7)"/>
<path d="M0 0 C2.9375 0.1875 2.9375 0.1875 6 1 C8.46252624 4.36518859 8.06166549 7.23267751 7.625 11.25 C7.45871094 12.86648437 7.45871094 12.86648437 7.2890625 14.515625 C7.14597656 15.74539062 7.14597656 15.74539062 7 17 C6.67 17 6.34 17 6 17 C6 13.37 6 9.74 6 6 C3.69 5.34 1.38 4.68 -1 4 C-1 1 -1 1 0 0 Z " fill="#B3B3B3" transform="translate(135,7)"/>
<path d="M0 0 C0.75 1.75 0.75 1.75 1 4 C-0.5625 6.25 -0.5625 6.25 -3 8 C-6.14522722 8.31452272 -8.15916359 8.42041821 -11 7 C-11 8.98 -11 10.96 -11 13 C-11.33 13 -11.66 13 -12 13 C-12 10.36 -12 7.72 -12 5 C-8.98968256 4.06576355 -8.13349732 3.95550089 -5 5 C-4.319375 4.2575 -4.319375 4.2575 -3.625 3.5 C-2 2 -2 2 0 2 C0 1.34 0 0.68 0 0 Z " fill="#9A9A9A" transform="translate(101,18)"/>
<path d="M0 0 C3.3 0.33 6.6 0.66 10 1 C10.33 2.32 10.66 3.64 11 5 C9.5625 6.75 9.5625 6.75 8 8 C6.68 7.34 5.36 6.68 4 6 C4 5.01 4 4.02 4 3 C2.68 2.67 1.36 2.34 0 2 C0 1.34 0 0.68 0 0 Z " fill="#8E8E8E" transform="translate(40,7)"/>
<path d="M0 0 C2.64 0 5.28 0 8 0 C7.34 0.9075 6.68 1.815 6 2.75 C3.65060172 5.93175815 3.65060172 5.93175815 4 10 C3.34 10 2.68 10 2 10 C2 8.35 2 6.7 2 5 C1.34 5 0.68 5 0 5 C0 3.35 0 1.7 0 0 Z " fill="#9A9A9A" transform="translate(87,9)"/>
<path d="M0 0 C1.65 0 3.3 0 5 0 C5.33 0.99 5.66 1.98 6 3 C6.99 3.66 7.98 4.32 9 5 C6.625 6.5625 6.625 6.5625 4 8 C1.44971017 6.72485508 1.06918289 5.59658703 0 3 C0 2.01 0 1.02 0 0 Z " fill="#9C9C9C" transform="translate(35,18)"/>
<path d="M0 0 C0.66 0 1.32 0 2 0 C4 5.625 4 5.625 4 9 C3.01 9.495 3.01 9.495 2 10 C1.34227572 13.02934491 1.34227572 13.02934491 1 16 C0.67 16 0.34 16 0 16 C0 10.72 0 5.44 0 0 Z " fill="#B9B9B9" transform="translate(87,14)"/>
<path d="M0 0 C0.99 0.33 1.98 0.66 3 1 C3 3.64 3 6.28 3 9 C1.02 9.99 1.02 9.99 -1 11 C0 8 0 8 1 7 C0.67 7 0.34 7 0 7 C0 4.69 0 2.38 0 0 Z " fill="#BEBEBE" transform="translate(116,13)"/>
<path d="M0 0 C0.75 1.75 0.75 1.75 1 4 C-0.9375 6.25 -0.9375 6.25 -3 8 C-3.66 7.01 -4.32 6.02 -5 5 C-3.625 3.5 -3.625 3.5 -2 2 C-1.34 2 -0.68 2 0 2 C0 1.34 0 0.68 0 0 Z " fill="#A4A4A4" transform="translate(101,18)"/>
<path d="M0 0 C0.33 0.66 0.66 1.32 1 2 C0.67 2.99 0.34 3.98 0 5 C-1.65 5.33 -3.3 5.66 -5 6 C-4.1875 3.5625 -4.1875 3.5625 -3 1 C-2.01 0.67 -1.02 0.34 0 0 Z " fill="#7B7B7B" transform="translate(56,2)"/>
<path d="M0 0 C0.66 0 1.32 0 2 0 C2 1.98 2 3.96 2 6 C0.35 5.67 -1.3 5.34 -3 5 C-1.625 2.5 -1.625 2.5 0 0 Z " fill="#ADADAD" transform="translate(82,12)"/>
<path d="M0 0 C0.99 0.33 1.98 0.66 3 1 C3.6875 3.0625 3.6875 3.0625 4 5 C2.35 4.67 0.7 4.34 -1 4 C-0.67 2.68 -0.34 1.36 0 0 Z " fill="#979797" transform="translate(123,3)"/>
<path d="M0 0 C0.66 0.33 1.32 0.66 2 1 C0.35 2.32 -1.3 3.64 -3 5 C-1.125 1.125 -1.125 1.125 0 0 Z " fill="#000000" transform="translate(5,3)"/>
<path d="M0 0 C0.66 0 1.32 0 2 0 C1.67 0.66 1.34 1.32 1 2 C0.67 1.34 0.34 0.68 0 0 Z " fill="#000000" transform="translate(117,8)"/>
<path d="M0 0 C0.99 0.495 0.99 0.495 2 1 C1.01 1.495 1.01 1.495 0 2 C0 1.34 0 0.68 0 0 Z " fill="#000000" transform="translate(104,8)"/>
<path d="M0 0 C0.99 0.495 0.99 0.495 2 1 C1.01 1.495 1.01 1.495 0 2 C0 1.34 0 0.68 0 0 Z " fill="#000000" transform="translate(7,1)"/>
<path d="" fill="#000000" transform="translate(0,0)"/>
<path d="M0 0 C2 1 2 1 2 1 Z " fill="#000000" transform="translate(47,7)"/>
<path d="" fill="#000000" transform="translate(0,0)"/>
<path d="" fill="#000000" transform="translate(0,0)"/>
<path d="" fill="#000000" transform="translate(0,0)"/>
<path d="" fill="#000000" transform="translate(0,0)"/>
<path d="" fill="#404040" transform="translate(0,0)"/>
<path d="" fill="#000000" transform="translate(0,0)"/>
<path d="" fill="#000000" transform="translate(0,0)"/>
<path d="" fill="#000000" transform="translate(0,0)"/>
<path d="" fill="#000000" transform="translate(0,0)"/>
<path d="" fill="#000000" transform="translate(0,0)"/>
<path d="" fill="#000000" transform="translate(0,0)"/>
<path d="" fill="#000000" transform="translate(0,0)"/>
<path d="" fill="#000000" transform="translate(0,0)"/>
<path d="" fill="#000000" transform="translate(0,0)"/>
<path d="" fill="#000000" transform="translate(0,0)"/>
<path d="" fill="#000000" transform="translate(0,0)"/>
<path d="" fill="#000000" transform="translate(0,0)"/>
<path d="" fill="#000000" transform="translate(0,0)"/>
<path d="" fill="#000000" transform="translate(0,0)"/>
<path d="" fill="#000000" transform="translate(0,0)"/>
<path d="" fill="#000000" transform="translate(0,0)"/>
<path d="" fill="#000000" transform="translate(0,0)"/>
<path d="" fill="#000000" transform="translate(0,0)"/>
<path d="" fill="#000000" transform="translate(0,0)"/>
<path d="" fill="#000000" transform="translate(0,0)"/>
<path d="" fill="#000000" transform="translate(0,0)"/>
<path d="" fill="#000000" transform="translate(0,0)"/>
<path d="" fill="#000000" transform="translate(0,0)"/>
<path d="" fill="#000000" transform="translate(0,0)"/>
<path d="" fill="#000000" transform="translate(0,0)"/>
<path d="" fill="#000000" transform="translate(0,0)"/>
<path d="" fill="#000000" transform="translate(0,0)"/>
<path d="" fill="#000000" transform="translate(0,0)"/>
<path d="" fill="#000000" transform="translate(0,0)"/>
<path d="" fill="#000000" transform="translate(0,0)"/>
<path d="" fill="#000000" transform="translate(0,0)"/>
<path d="" fill="#000000" transform="translate(0,0)"/>
<path d="" fill="#000000" transform="translate(0,0)"/>
<path d="" fill="#000000" transform="translate(0,0)"/>
<path d="" fill="#000000" transform="translate(0,0)"/>
<path d="" fill="#000000" transform="translate(0,0)"/>
<path d="" fill="#000000" transform="translate(0,0)"/>
<path d="" fill="#000000" transform="translate(0,0)"/>
<path d="" fill="#000000" transform="translate(0,0)"/>
<path d="" fill="#000000" transform="translate(0,0)"/>
<path d="" fill="#000000" transform="translate(0,0)"/>
<path d="" fill="#000000" transform="translate(0,0)"/>
<path d="" fill="#000000" transform="translate(0,0)"/>
<path d="" fill="#000000" transform="translate(0,0)"/>
<path d="" fill="#000000" transform="translate(0,0)"/>
<path d="" fill="#000000" transform="translate(0,0)"/>
<path d="" fill="#000000" transform="translate(0,0)"/>
<path d="" fill="#000000" transform="translate(0,0)"/>
<path d="" fill="#000000" transform="translate(0,0)"/>
<path d="" fill="#000000" transform="translate(0,0)"/>
<path d="" fill="#000000" transform="translate(0,0)"/>
<path d="" fill="#000000" transform="translate(0,0)"/>
<path d="" fill="#000000" transform="translate(0,0)"/>
<path d="" fill="#000000" transform="translate(0,0)"/>
<path d="" fill="#000000" transform="translate(0,0)"/>
<path d="" fill="#000000" transform="translate(0,0)"/>
<path d="" fill="#000000" transform="translate(0,0)"/>
<path d="" fill="#000000" transform="translate(0,0)"/>
<path d="" fill="#000000" transform="translate(0,0)"/>
<path d="" fill="#000000" transform="translate(0,0)"/>
<path d="" fill="#7F7F7F" transform="translate(0,0)"/>
<path d="" fill="#000000" transform="translate(0,0)"/>
<path d="" fill="#000000" transform="translate(0,0)"/>
<path d="" fill="#7F7F7F" transform="translate(0,0)"/>
<path d="" fill="#000000" transform="translate(0,0)"/>
<path d="" fill="#7F7F7F" transform="translate(0,0)"/>
<path d="" fill="#000000" transform="translate(0,0)"/>
<path d="" fill="#000000" transform="translate(0,0)"/>
<path d="" fill="#000000" transform="translate(0,0)"/>
<path d="" fill="#000000" transform="translate(0,0)"/>
<path d="" fill="#000000" transform="translate(0,0)"/>
<path d="" fill="#000000" transform="translate(0,0)"/>
<path d="" fill="#000000" transform="translate(0,0)"/>
<path d="" fill="#000000" transform="translate(0,0)"/>
<path d="" fill="#555555" transform="translate(0,0)"/>
<path d="" fill="#000000" transform="translate(0,0)"/>
<path d="" fill="#000000" transform="translate(0,0)"/>
<path d="" fill="#7F7F7F" transform="translate(0,0)"/>
<path d="" fill="#000000" transform="translate(0,0)"/>
<path d="" fill="#000000" transform="translate(0,0)"/>
<path d="" fill="#000000" transform="translate(0,0)"/>
<path d="" fill="#000000" transform="translate(0,0)"/>
<path d="" fill="#7F7F7F" transform="translate(0,0)"/>
<path d="" fill="#000000" transform="translate(0,0)"/>
<path d="" fill="#000000" transform="translate(0,0)"/>
<path d="" fill="#000000" transform="translate(0,0)"/>
<path d="" fill="#000000" transform="translate(0,0)"/>
<path d="" fill="#000000" transform="translate(0,0)"/>
<path d="" fill="#000000" transform="translate(0,0)"/>
<path d="" fill="#000000" transform="translate(0,0)"/>
<path d="" fill="#000000" transform="translate(0,0)"/>
<path d="" fill="#000000" transform="translate(0,0)"/>
<path d="" fill="#000000" transform="translate(0,0)"/>
<path d="" fill="#000000" transform="translate(0,0)"/>
<path d="" fill="#000000" transform="translate(0,0)"/>
<path d="" fill="#000000" transform="translate(0,0)"/>
<path d="" fill="#000000" transform="translate(0,0)"/>
<path d="" fill="#000000" transform="translate(0,0)"/>
<path d="" fill="#000000" transform="translate(0,0)"/>
<path d="" fill="#000000" transform="translate(0,0)"/>
<path d="" fill="#000000" transform="translate(0,0)"/>
<path d="" fill="#000000" transform="translate(0,0)"/>
<path d="" fill="#000000" transform="translate(0,0)"/>
<path d="" fill="#000000" transform="translate(0,0)"/>
<path d="" fill="#000000" transform="translate(0,0)"/>
<path d="" fill="#000000" transform="translate(0,0)"/>
<path d="" fill="#000000" transform="translate(0,0)"/>
<path d="" fill="#000000" transform="translate(0,0)"/>
<path d="" fill="#000000" transform="translate(0,0)"/>
<path d="" fill="#000000" transform="translate(0,0)"/>
<path d="" fill="#000000" transform="translate(0,0)"/>
<path d="" fill="#000000" transform="translate(0,0)"/>
<path d="" fill="#000000" transform="translate(0,0)"/>
<path d="" fill="#000000" transform="translate(0,0)"/>
<path d="" fill="#000000" transform="translate(0,0)"/>
<path d="" fill="#000000" transform="translate(0,0)"/>
<path d="" fill="#000000" transform="translate(0,0)"/>
<path d="" fill="#000000" transform="translate(0,0)"/>
<path d="" fill="#000000" transform="translate(0,0)"/>
<path d="" fill="#000000" transform="translate(0,0)"/>
<path d="" fill="#000000" transform="translate(0,0)"/>
<path d="" fill="#000000" transform="translate(0,0)"/>
</svg>
